<svg id="Capa_1" enable-background="new 0 0 512 512" height="512" viewBox="0 0 512 512" width="512" xmlns="http://www.w3.org/2000/svg"><g><path d="m256 455.825c-1.989 0-3.897-.791-5.304-2.197-5.815-5.816-11.876-14.4-18.015-25.514-2.002-3.626-.687-8.188 2.939-10.191 3.627-2.002 8.188-.687 10.191 2.939 3.513 6.36 6.924 11.715 10.193 16.009 14.663-19.2 26.957-52.871 27.094-53.249.703-1.942 2.177-3.509 4.073-4.329 1.896-.821 4.046-.823 5.943-.006 11.597 4.992 23.441 8.256 32.122 9.672-2.428-14.746-10.191-37.78-21.576-49.166-6.965-6.965-15.236-11.149-23.29-11.781-7.34-.579-14.114 1.835-19.068 6.792-1.407 1.407-3.314 2.197-5.304 2.197s-3.896-.79-5.304-2.197c-4.954-4.956-11.726-7.37-19.068-6.792-8.054.632-16.325 4.816-23.29 11.781-11.385 11.385-19.148 34.42-21.576 49.166 8.681-1.416 20.525-4.681 32.122-9.672 1.896-.816 4.047-.813 5.943.006 1.896.82 3.369 2.387 4.073 4.329.017.046 1.715 4.719 4.573 11.5 1.608 3.817-.181 8.215-3.998 9.824-3.814 1.608-8.215-.181-9.824-3.998-.769-1.824-1.456-3.497-2.054-4.982-14.313 5.366-29.344 8.8-39.145 8.8-1.989 0-3.896-.79-5.304-2.197-1.406-1.406-2.196-3.314-2.196-5.303 0-14.823 8.948-50.249 26.777-68.079 9.489-9.489 21.111-15.217 32.724-16.128 6.363-.499 12.485.424 18.046 2.655v-60.628h-3.303c-4.143 0-7.5-3.358-7.5-7.5s3.357-7.5 7.5-7.5h3.303v-50.785c-20.509 1.161-37.048 6.974-48.428 13.741 14.689 7.295 24.479 24.051 24.479 44.544 0 25.214-18.723 56.592-29.203 67.074-1.406 1.406-3.314 2.197-5.304 2.197s-3.896-.79-5.303-2.196c-6.93-6.929-15.128-19.982-21.454-33.896-13.513 5.762-43.311 17.361-64.181 17.361-4.143 0-7.5-3.358-7.5-7.5 0-20.87 11.6-50.667 17.361-64.181-13.913-6.326-26.967-14.524-33.896-21.453-2.929-2.929-2.929-7.677 0-10.606 10.48-10.481 41.857-29.205 67.074-29.205 21.941 0 39.6 11.224 45.947 27.667 17.729-12.085 41.066-17.447 60.405-18.542v-15.399c-25.652-1.263-45.437-8.886-65.022-17.295-3.806-1.634-5.566-6.044-3.933-9.851s6.045-5.567 9.851-3.933c18.722 8.038 36.295 14.825 59.104 16.061v-15.524c-15.734-3.091-27.551-15.697-27.551-30.732 0-22.328 19.272-41.458 35.051-41.458s35.051 19.13 35.051 41.458c0 15.036-11.816 27.642-27.551 30.732v15.518c25.154-1.4 44.303-9.664 62.874-17.679 19.303-8.331 39.264-16.946 64.571-16.946 37.424 0 68.313 28.517 72.077 64.963h41.484c4.143 0 7.5 3.358 7.5 7.5s-3.357 7.5-7.5 7.5h-48.593c-4.143 0-7.5-3.358-7.5-7.5 0-31.685-25.777-57.463-57.462-57.463-22.209 0-39.898 7.635-58.628 15.718-20.032 8.646-40.693 17.563-68.817 18.933v15.397c19.339 1.095 42.677 6.456 60.406 18.542 6.347-16.442 24.005-27.666 45.946-27.666 4.142 0 7.5 3.358 7.5 7.5s-3.357 7.5-7.5 7.5c-19.399 0-33.48 11.113-33.48 26.424 0 4.142-3.357 7.5-7.5 7.5-15.311 0-26.424 14.081-26.424 33.48 0 16.1 10.798 37.878 19.509 50.021 5.137-7.139 11.203-17.822 15.874-29.553.764-1.918 2.286-3.437 4.206-4.198 1.921-.761 4.069-.695 5.941.18.364.171 32.897 15.287 56.821 18.495-3.206-23.945-18.325-56.455-18.496-56.819-.876-1.871-.941-4.021-.182-5.941.761-1.921 2.279-3.443 4.199-4.207 11.727-4.67 22.407-10.734 29.547-15.87-6.015-4.317-14.512-9.259-23.636-13.087-3.819-1.603-5.616-5.999-4.014-9.818 1.604-3.82 6-5.614 9.818-4.014 13.686 5.743 27.707 14.428 34.89 21.611 2.929 2.929 2.929 7.678 0 10.606-6.93 6.929-19.982 15.127-33.896 21.453 5.762 13.513 17.361 43.311 17.361 64.181 0 4.142-3.357 7.5-7.5 7.5-20.87 0-50.668-11.6-64.181-17.361-6.326 13.914-14.524 26.967-21.454 33.896-1.406 1.406-3.313 2.196-5.303 2.196-1.989 0-3.897-.791-5.304-2.197-10.48-10.482-29.203-41.86-29.203-67.074 0-20.493 9.791-37.249 24.479-44.544-11.38-6.768-27.918-12.58-48.428-13.741v50.785h3.303c4.143 0 7.5 3.358 7.5 7.5s-3.357 7.5-7.5 7.5h-3.299v60.628c5.562-2.231 11.684-3.157 18.046-2.655 11.612.912 23.234 6.639 32.724 16.128 17.829 17.83 26.777 53.256 26.777 68.079 0 1.989-.79 3.897-2.196 5.303-1.407 1.407-3.314 2.197-5.304 2.197-9.799 0-24.827-3.433-39.138-8.798-5.48 13.629-18.349 42.901-33.105 57.659-1.408 1.407-3.315 2.198-5.304 2.198zm-88.799-192.494c.936 0 1.873.175 2.762.527 1.92.761 3.442 2.279 4.206 4.198 4.671 11.73 10.737 22.414 15.874 29.553 8.711-12.144 19.509-33.921 19.509-50.021 0-19.4-11.113-33.48-26.424-33.48-4.143 0-7.5-3.358-7.5-7.5 0-15.311-14.081-26.424-33.48-26.424-16.102 0-37.879 10.798-50.021 19.509 7.139 5.137 17.822 11.204 29.552 15.875 1.919.764 3.438 2.286 4.198 4.207s.695 4.07-.18 5.94c-.171.365-15.286 32.896-18.494 56.82 23.924-3.209 56.455-18.324 56.819-18.495 1.005-.473 2.091-.709 3.179-.709zm88.799-192.156c-6.688 0-20.051 11.438-20.051 26.458 0 9.075 8.995 16.458 20.051 16.458s20.051-7.383 20.051-16.458c0-15.019-13.363-26.458-20.051-26.458zm-199.907 118.046h-48.593c-4.143 0-7.5-3.358-7.5-7.5s3.357-7.5 7.5-7.5h41.478c3.764-36.446 34.653-64.963 72.077-64.963 13.515 0 26.654 2.403 41.349 7.563 3.908 1.373 5.964 5.653 4.592 9.562-1.371 3.908-5.652 5.965-9.561 4.592-13.229-4.645-24.448-6.716-36.38-6.716-31.685 0-57.462 25.778-57.462 57.463 0 4.141-3.358 7.499-7.5 7.499z"/></g></svg>