<?xml version="1.0" encoding="UTF-8"?>
<svg xmlns="http://www.w3.org/2000/svg" xmlns:xlink="http://www.w3.org/1999/xlink" width="5pt" height="5pt" viewBox="0 0 5 5" version="1.1">
<g id="surface1">
<path style=" stroke:none;fill-rule:nonzero;fill:rgb(0%,0%,0%);fill-opacity:1;" d="M 3.957031 1.011719 C 3.933594 1.011719 3.910156 1.011719 3.890625 1.011719 C 3.890625 1.011719 3.886719 1.011719 3.886719 1.011719 C 3.871094 1.015625 3.847656 1 3.835938 0.972656 C 3.613281 0.433594 3.089844 0.0820312 2.503906 0.0820312 C 2.503906 0.0820312 2.5 0.0820312 2.5 0.0820312 C 2.5 0.0820312 2.496094 0.0820312 2.496094 0.0820312 C 1.910156 0.0820312 1.386719 0.433594 1.164062 0.972656 C 1.152344 1 1.128906 1.015625 1.113281 1.011719 C 1.109375 1.011719 1.109375 1.011719 1.109375 1.011719 C 1.085938 1.011719 1.0625 1.011719 1.042969 1.011719 C 0.46875 1.011719 0 1.476562 0 2.050781 C 0 2.589844 0.40625 3.035156 0.933594 3.085938 L 1.058594 3.480469 L 1.371094 4.460938 C 1.417969 4.597656 1.546875 4.714844 1.75 4.796875 C 1.777344 4.808594 1.808594 4.820312 1.839844 4.828125 C 1.84375 4.832031 1.84375 4.832031 1.84375 4.832031 C 1.953125 4.867188 2.078125 4.890625 2.210938 4.90625 C 2.308594 4.917969 2.65625 4.925781 2.789062 4.90625 C 2.921875 4.890625 3.046875 4.867188 3.15625 4.832031 C 3.15625 4.832031 3.15625 4.832031 3.15625 4.828125 C 3.191406 4.820312 3.222656 4.808594 3.25 4.796875 C 3.453125 4.714844 3.582031 4.597656 3.625 4.460938 L 3.941406 3.480469 L 4.066406 3.085938 C 4.59375 3.035156 5 2.589844 5 2.050781 C 5 1.476562 4.53125 1.011719 3.957031 1.011719 Z M 1.945312 4.679688 L 1.628906 3.332031 C 1.617188 3.285156 1.570312 3.253906 1.523438 3.265625 C 1.476562 3.277344 1.449219 3.324219 1.460938 3.371094 L 1.746094 4.605469 C 1.632812 4.546875 1.5625 4.476562 1.539062 4.40625 L 1.226562 3.429688 L 1.117188 3.089844 C 1.226562 3.085938 1.371094 3.070312 1.484375 3.023438 C 1.574219 2.984375 1.660156 2.917969 1.730469 2.863281 C 1.761719 2.839844 1.800781 2.8125 1.824219 2.796875 C 1.875 2.828125 1.929688 2.851562 1.988281 2.875 L 2.125 4.71875 C 2.058594 4.707031 2 4.695312 1.945312 4.679688 Z M 2.699219 4.738281 C 2.644531 4.742188 2.355469 4.742188 2.300781 4.738281 L 2.167969 2.925781 C 2.273438 2.949219 2.382812 2.960938 2.496094 2.960938 C 2.496094 2.960938 2.5 2.960938 2.5 2.960938 C 2.5 2.960938 2.503906 2.960938 2.503906 2.960938 C 2.617188 2.960938 2.726562 2.949219 2.832031 2.925781 Z M 3.773438 3.429688 L 3.460938 4.40625 C 3.4375 4.476562 3.367188 4.546875 3.25 4.605469 L 3.539062 3.371094 C 3.550781 3.324219 3.523438 3.277344 3.476562 3.265625 C 3.429688 3.253906 3.382812 3.285156 3.371094 3.332031 L 3.054688 4.679688 C 3 4.695312 2.941406 4.707031 2.875 4.71875 L 3.011719 2.875 C 3.070312 2.851562 3.125 2.828125 3.175781 2.796875 C 3.199219 2.8125 3.238281 2.839844 3.269531 2.863281 C 3.339844 2.917969 3.425781 2.984375 3.515625 3.023438 C 3.628906 3.070312 3.773438 3.085938 3.882812 3.089844 Z M 3.996094 2.917969 C 3.992188 2.917969 3.976562 2.917969 3.953125 2.917969 C 3.882812 2.917969 3.699219 2.914062 3.585938 2.863281 C 3.515625 2.832031 3.441406 2.777344 3.375 2.726562 C 3.289062 2.660156 3.230469 2.617188 3.171875 2.617188 C 3.148438 2.617188 3.128906 2.621094 3.113281 2.632812 C 2.941406 2.734375 2.730469 2.789062 2.503906 2.789062 C 2.503906 2.789062 2.5 2.785156 2.5 2.785156 C 2.5 2.785156 2.496094 2.789062 2.496094 2.789062 C 2.269531 2.789062 2.058594 2.734375 1.886719 2.632812 C 1.871094 2.621094 1.851562 2.617188 1.828125 2.617188 C 1.769531 2.617188 1.710938 2.660156 1.625 2.726562 C 1.558594 2.777344 1.484375 2.832031 1.414062 2.863281 C 1.300781 2.914062 1.117188 2.917969 1.042969 2.917969 C 1.019531 2.917969 1.003906 2.917969 1.003906 2.917969 C 0.539062 2.898438 0.175781 2.515625 0.175781 2.050781 C 0.175781 1.574219 0.5625 1.1875 1.042969 1.1875 C 1.058594 1.1875 1.109375 1.1875 1.113281 1.1875 C 1.203125 1.1875 1.289062 1.128906 1.324219 1.042969 C 1.523438 0.566406 1.980469 0.257812 2.496094 0.257812 C 2.496094 0.257812 2.5 0.257812 2.5 0.257812 C 2.5 0.257812 2.503906 0.257812 2.503906 0.257812 C 3.019531 0.257812 3.476562 0.566406 3.675781 1.042969 C 3.710938 1.128906 3.792969 1.1875 3.886719 1.1875 C 3.890625 1.1875 3.9375 1.1875 3.957031 1.1875 C 4.4375 1.1875 4.824219 1.574219 4.824219 2.050781 C 4.824219 2.515625 4.460938 2.898438 3.996094 2.917969 Z M 3.996094 2.917969 "/>
</g>
</svg>
